<svg width="1275" height="372" viewBox="0 0 1275 372" fill="none" xmlns="http://www.w3.org/2000/svg">
<path d="M54.8 55.7999C54.5 55.7999 54.2 56.1 54.2 56.4V306.8C54.2 306.9 54.3 307 54.4 307H314.4C314.8 307 315 306.8 315 306.5V56.5999C315 56.0999 314.7 55.7999 314.2 55.7999H155.4C155.2 55.7999 155.1 56 155.1 56.2C155.1 74.1 155.1 91.9 155.1 109.8C155.1 120.3 154.3 130.8 154.3 141.3C154.3 165.3 154.2 189.3 154.3 213.3C154.4 237.3 171.6 246.6 193.5 243.7C209.1 241.6 216.7 228.9 216.8 214.1C217 189.3 217 164.5 217.1 139.9C217.1 139.7 217.3 139.4 217.6 139.4H253.6C253.8 139.4 253.9 139.5 253.9 139.7C253.9 164.9 253.9 190 253.9 215C253.9 216.9 253.4 220.7 252.4 226.2C244 270 197 280 160.4 270.6C157.1 269.8 153.1 268.1 148.3 265.6C129.7 255.9 119.7 239.3 117.8 218.7C117.6 216.1 117.4 212 117.4 206.4C117.4 156.6 117.3 106.8 117.1 57C117 43 122.5 32.0999 133.6 24.4C140.9 19.3 148.3 18.2 158 18.2C208.7 18.2 259.4 18.2 310.1 18.2C317.3 18.2 322.6 18.7 326 19.6C339.7 23.4 350.4 35.7 352.2 50C352.4 51.4 352.5 55.9 352.5 63.4C352.5 140.5 352.5 217.6 352.5 294.7C352.5 305.6 352.3 312.2 351.8 314.6C349.3 328.4 338.1 340.4 324.1 343.5C321.4 344.1 317.1 344.4 311 344.4C224.5 344.4 137.9 344.4 51.3 344.4C36.3 344.4 22.2 332.4 18 318C17 314.5 16.5 308.2 16.5 299.1C16.5 221.1 16.5 143.1 16.5 65.0999C16.5 55.1999 16.9 48.6 17.8 45.2C21 33.3 31 22.9 43.4 19.6C46.3 18.8 50.7 18.3999 56.7 18.2999C65.5 18.1999 74.2 18.1999 83 18.2999C83.3 18.2999 83.5 18.4999 83.5 18.7999V55.2999C83.5 55.5999 83.3 55.7999 83 55.7999H54.8Z" fill="black"/>
<path d="M756.8 62.4999C749.8 59.6999 743.3 59.1999 737.4 61.0999C718.8 66.9999 721.1 97.6999 721.6 112.3C722.3 132.4 727.9 147.2 751.3 143.7C762.4 142 766.7 134.2 767.4 123.8C767.4 123.5 767.6 123.3 767.9 123.3H797.9C798.2 123.3 798.4 123.5 798.4 123.8C797.2 157.8 766.3 171.8 736.2 168.5C705.3 165.2 690.9 139.2 689.6 110.6C689.1 98.4999 689.5 86.8999 692.6 75.2999C698.8 52.0999 716.7 36.4999 741.2 35.4999C771.3 34.1999 796.2 49.6999 798.8 81.6999C798.8 81.8999 798.6 82.0999 798.4 82.0999H768.1C767.8 82.0999 767.6 81.8999 767.6 81.5999C767.6 73.7999 764.6 65.5999 756.8 62.4999Z" fill="#0E9304"/>
<path d="M999.601 120.7C991.601 116 982.401 113.2 973.701 110.1C961.901 105.9 948.901 98.5999 942.901 87.4999C936.301 75.2999 938.201 60.0999 947.701 50.1999C959.101 38.2999 977.401 34.9999 993.201 35.5999C1016.8 36.5999 1036.7 50.0999 1037.9 75.3999C1037.9 75.6999 1037.7 75.8999 1037.5 75.8999H1007.3C1007 75.8999 1006.8 75.7999 1006.8 75.4999C1006.6 74.1999 1006.3 72.9999 1006.1 71.7999C1004.8 65.3999 1001.3 61.4999 995.401 60.0999C987.701 58.1999 975.701 58.9999 971.601 67.0999C965.901 78.2999 979.401 84.4999 987.401 87.2999C1006.5 94.0999 1032.1 101.2 1036.9 124.5C1042 149 1025.9 164.7 1002.9 168.1C985.601 170.7 964.801 168.6 950.501 157.4C940.401 149.5 935.001 138.4 935.301 125.5C935.301 125.4 935.401 125.2 935.601 125.2H966.101C966.501 125.2 966.801 125.5 966.801 125.9C966.801 135.6 970.401 142.3 980.201 144.8C986.001 146.3 993.301 146.5 998.901 144.2C1009.1 139.9 1008.6 126 999.601 120.7Z" fill="#0E9304"/>
<path d="M483.9 121.8C484.1 157.1 456.3 171.8 424.2 168.5C403.9 166.4 387.6 155.7 382.6 135C381.6 131 381.1 124.8 381.1 116.5C381.1 90.0999 381.1 63.6999 381.1 37.2999C381.1 37.0999 381.3 36.8999 381.5 36.8999H411.9C412.3 36.8999 412.6 37.1999 412.6 37.5999C412.6 65.2999 412.6 92.9999 412.6 120.6C412.6 136.9 418.5 146.4 436.1 144.7C449.4 143.5 452.3 132.9 452.3 121.3C452.3 93.1999 452.3 65.1999 452.3 37.2999C452.3 36.9999 452.5 36.7999 452.8 36.7999H483C483.4 36.7999 483.7 37.0999 483.7 37.4999C483.8 65.7999 483.8 93.8999 483.9 121.8Z" fill="#0E9304"/>
<path d="M583.1 36.8999H613.6C613.8 36.8999 613.9 37.0999 613.9 37.1999V167.1C613.9 167.3 613.7 167.4 613.6 167.4H583C582.9 167.4 582.8 167.3 582.7 167.2L537.2 87.1999C537.1 86.9999 536.9 86.9999 536.7 87.0999C536.6 87.1999 536.5 87.2999 536.5 87.3999V167C536.5 167.2 536.3 167.3 536.2 167.3H505.4C505.2 167.3 505.1 167.1 505.1 167V37.1999C505.1 36.9999 505.3 36.8999 505.4 36.8999H536.2C536.3 36.8999 536.4 36.9999 536.5 37.0999L582 117.2C582.1 117.4 582.3 117.4 582.5 117.3C582.6 117.2 582.7 117.1 582.7 117V37.1999C582.7 36.9999 582.9 36.8999 583.1 36.8999Z" fill="#0E9304"/>
<path d="M638.6 36.8999H668.9C669.2 36.8999 669.4 37.0999 669.4 37.3999V167C669.4 167.3 669.2 167.5 668.9 167.5H638.6C638.3 167.5 638.1 167.3 638.1 167V37.3999C638.1 37.0999 638.3 36.8999 638.6 36.8999Z" fill="#0E9304"/>
<path d="M853.4 168C834.8 165.3 820.1 152.7 816.1 134.9C815.3 131.2 814.8 124.5 814.8 115C814.7 89.1 814.7 63.1999 814.8 37.2999C814.8 37.0999 815 36.7999 815.3 36.7999H845.2C845.9 36.7999 846.3 37.2 846.3 37.9C846.3 66.9 846.3 94.7999 846.2 121.6C846.2 137.7 853.4 146.3 870.1 144.6C882.7 143.3 885.9 133 885.9 121.7C885.9 93.5 885.9 65.4 885.9 37.2C885.9 36.9 886.1 36.7 886.4 36.7H916.6C916.9 36.7 917.2 36.9999 917.2 37.2999C917.3 63.2999 917.3 89.1999 917.2 115.1C917.2 124.9 916.8 131.5 916 135C909.6 164.6 879.1 171.8 853.4 168Z" fill="#0E9304"/>
<path d="M217.3 93.7999H253.3C253.5 93.7999 253.7 93.9999 253.7 94.1999V126.7C253.7 126.9 253.5 127.1 253.3 127.1H217.3C217.1 127.1 216.9 126.9 216.9 126.7V94.1999C216.9 93.9999 217.1 93.7999 217.3 93.7999Z" fill="#0E9304"/>
<path d="M1228.6 277.8H1207.9C1207.6 277.8 1207.4 277.6 1207.4 277.3V256.8C1207.4 256.4 1207.6 256.1 1208.1 256.1H1259.9C1260.3 256.1 1260.6 256.4 1260.6 256.8C1260.6 273.8 1260.6 290.9 1260.6 308C1260.6 313.2 1244.3 320.8 1239.9 322.3C1219.7 329.3 1192.9 330.6 1174.5 317.3C1160.5 307.2 1153 290.4 1151.9 273.5C1151.5 267.8 1151.5 260.5 1151.7 251.7C1152.3 229.8 1162.2 208.5 1182.5 198.9C1195.3 192.8 1210.1 192.6 1224.1 195.4C1246.4 199.8 1258 215.4 1260.5 237.5C1260.5 237.7 1260.4 237.9 1260.2 237.9H1231C1230.7 237.9 1230.4 237.7 1230.4 237.4C1228.1 227.1 1225.2 219.8 1213.3 218.1C1190.9 214.9 1184.4 234 1183.6 251.9C1182.8 270.1 1181.6 297.8 1204.9 302.9C1211.6 304.4 1221.9 303.1 1228.4 298.7C1228.9 298.4 1229.2 297.8 1229.2 297.2V278.2C1229.1 278 1229 277.8 1228.6 277.8Z" fill="black"/>
<path d="M467.6 302.2V325.5C467.6 325.7 467.4 325.8 467.3 325.8H382C381.8 325.8 381.7 325.6 381.7 325.5V195.8C381.7 195.6 381.9 195.4 382 195.4H412.6C412.8 195.4 412.9 195.6 412.9 195.8V301.5C412.9 301.7 413.1 301.8 413.3 301.8H467.4C467.5 301.8 467.6 302 467.6 302.2Z" fill="black"/>
<path d="M514.2 270.8V301.4C514.2 301.7 514.4 301.9 514.7 301.9H572C572.3 301.9 572.5 302.1 572.5 302.4V325.5C572.5 325.8 572.3 326 572 326H483.4C483.1 326 482.9 325.8 482.9 325.5V195.9C482.9 195.6 483.1 195.4 483.4 195.4H572.2C572.5 195.4 572.7 195.6 572.7 195.9V219.4C572.7 219.7 572.5 219.9 572.2 219.9H514.7C514.4 219.9 514.2 220.1 514.2 220.4V246.7C514.2 247 514.4 247.2 514.7 247.2H563.2C563.5 247.2 563.7 247.4 563.7 247.7V270C563.7 270.3 563.5 270.5 563.2 270.5H514.7C514.4 270.3 514.2 270.5 514.2 270.8Z" fill="black"/>
<path d="M618 301.6L610.7 325.6C610.7 325.7 610.5 325.8 610.4 325.8H577.5C577.3 325.8 577.2 325.7 577.2 325.5V325.4L624.7 195.6C624.7 195.5 624.9 195.4 625 195.4H654.1C654.2 195.4 654.3 195.5 654.4 195.6L702.3 325.4C702.4 325.6 702.3 325.7 702.1 325.8H702H669C668.9 325.8 668.7 325.7 668.7 325.6L661.2 301.6C661.2 301.5 661 301.4 660.9 301.4H618.3C618.2 301.4 618.1 301.5 618 301.6ZM625.8 276.6C625.8 276.8 625.8 276.9 626 277H626.1H653.2C653.4 277 653.5 276.9 653.5 276.7V276.6L639.8 232.9C639.8 232.7 639.6 232.6 639.4 232.7C639.3 232.7 639.2 232.8 639.2 232.9L625.8 276.6Z" fill="black"/>
<path d="M745.3 280.1V325.4C745.3 325.7 745.1 325.9 744.8 325.9H714.4C714.2 325.9 713.9 325.7 713.9 325.4V196.1C713.9 195.7 714.1 195.5 714.5 195.5C731.4 195.5 748.2 195.5 765 195.5C774.4 195.5 782.8 196.8 790.1 199.5C810.3 206.7 817.6 225.8 813.3 245.9C811.2 255.6 806 263 797.6 268.2C795.8 269.3 794 270.4 792.2 271.5C791.9 271.7 791.8 272 792 272.3L819.1 324.9C819.3 325.2 819.1 325.6 818.8 325.8C818.7 325.8 818.6 325.9 818.5 325.9H785.8C785.5 325.9 785.2 325.7 785 325.4L762.4 279.9C762.3 279.7 762.1 279.6 761.8 279.6H745.6C745.5 279.5 745.3 279.7 745.3 280.1ZM745.3 220L745.4 254.9C745.4 255.2 745.7 255.4 745.9 255.4L766.9 255.3C776 255.3 783.3 247.9 783.3 238.8V235.7C783.3 226.6 775.9 219.2 766.8 219.3L745.8 219.4C745.5 219.5 745.3 219.7 745.3 220Z" fill="black"/>
<path d="M866.7 325.8H836C835.8 325.8 835.7 325.7 835.7 325.5V195.7C835.7 195.5 835.8 195.4 836 195.4H866.8C866.9 195.4 867 195.5 867.1 195.6L912.5 275.5C912.6 275.7 912.8 275.7 912.9 275.6C913 275.5 913.1 275.4 913.1 275.3V195.7C913.1 195.5 913.2 195.4 913.4 195.4H944.1C944.3 195.4 944.4 195.5 944.4 195.7V325.5C944.4 325.7 944.3 325.8 944.1 325.8H913.4C913.3 325.8 913.2 325.7 913.1 325.6L867.7 245.8C867.6 245.6 867.4 245.6 867.3 245.7C867.2 245.8 867.1 245.9 867.1 246V325.5C867 325.7 866.9 325.8 866.7 325.8Z" fill="black"/>
<path d="M968.6 195.4H999C999.3 195.4 999.5 195.6 999.5 195.9V325.4C999.5 325.7 999.3 325.9 999 325.9H968.6C968.3 325.9 968.1 325.7 968.1 325.4V195.9C968.1 195.6 968.3 195.4 968.6 195.4Z" fill="black"/>
<path d="M1100.6 275.4V195.7C1100.6 195.5 1100.7 195.4 1100.9 195.4H1131.5C1131.7 195.4 1131.8 195.5 1131.8 195.7V325.5C1131.8 325.7 1131.7 325.8 1131.5 325.8H1100.9C1100.8 325.8 1100.7 325.7 1100.6 325.6L1055.2 245.7C1055.1 245.5 1054.9 245.5 1054.8 245.6C1054.7 245.7 1054.6 245.8 1054.6 245.9V325.5C1054.6 325.7 1054.5 325.8 1054.3 325.8H1023.6C1023.4 325.8 1023.3 325.7 1023.3 325.5V195.8C1023.3 195.6 1023.4 195.5 1023.6 195.5H1054.3C1054.4 195.5 1054.5 195.6 1054.6 195.7L1100 275.7C1100.1 275.9 1100.3 275.9 1100.4 275.8C1100.6 275.7 1100.6 275.5 1100.6 275.4Z" fill="black"/>
</svg>
